<svg width="24" height="24" viewBox="0 0 24 24" fill="none" xmlns="http://www.w3.org/2000/svg">
<path d="M13.0711 18C13.0711 18.5523 12.6234 19 12.0711 19C11.5188 19 11.0711 18.5523 11.0711 18L11.0711 6C11.0711 5.44772 11.5188 5 12.0711 5C12.6234 5 13.0711 5.44772 13.0711 6L13.0711 18Z" fill="black"/>
<path d="M13.1213 18.2929C12.7308 18.6834 12.0976 18.6834 11.7071 18.2929C11.3166 17.9024 11.3166 17.2692 11.7071 16.8787L15.9497 12.636C16.3403 12.2455 16.9734 12.2455 17.364 12.636C17.7545 13.0266 17.7545 13.6597 17.364 14.0503L13.1213 18.2929Z" fill="black"/>
<path d="M12.364 16.8787C12.7545 17.2692 12.7545 17.9024 12.364 18.2929C11.9734 18.6834 11.3403 18.6834 10.9497 18.2929L6.70711 14.0503C6.31658 13.6597 6.31658 13.0266 6.70711 12.636C7.09763 12.2455 7.7308 12.2455 8.12132 12.636L12.364 16.8787Z" fill="black"/>
</svg>
