<svg width="24" height="24" viewBox="0 0 24 24" fill="none" xmlns="http://www.w3.org/2000/svg">
<path d="M11.1841 8.30443C11.5901 7.89852 12.2482 7.89852 12.6541 8.30443C13.06 8.71034 13.06 9.36845 12.6541 9.77436L6.77436 15.6541C6.36845 16.06 5.71034 16.06 5.30443 15.6541C4.89852 15.2482 4.89852 14.5901 5.30443 14.1841L11.1841 8.30443Z" fill="black"/>
<path d="M18.6956 14.1841C19.1015 14.5901 19.1015 15.2482 18.6956 15.6541C18.2897 16.06 17.6315 16.06 17.2256 15.6541L11.3459 9.77436C10.94 9.36845 10.94 8.71034 11.3459 8.30443C11.7518 7.89852 12.4099 7.89852 12.8159 8.30443L18.6956 14.1841Z" fill="black"/>
</svg>
