<svg width="24" height="24" viewBox="0 0 24 24" fill="none" xmlns="http://www.w3.org/2000/svg">
<path d="M15.6748 11.1634C16.0807 11.5693 16.0807 12.2274 15.6748 12.6333C15.2689 13.0392 14.6108 13.0392 14.2049 12.6333L8.32518 6.75361C7.91927 6.3477 7.91927 5.68959 8.32518 5.28368C8.73109 4.87777 9.3892 4.87777 9.79511 5.28368L15.6748 11.1634Z" fill="black"/>
<path d="M9.79511 18.6748C9.3892 19.0807 8.73109 19.0807 8.32518 18.6748C7.91927 18.2689 7.91927 17.6108 8.32518 17.2049L14.2049 11.3252C14.6108 10.9193 15.2689 10.9193 15.6748 11.3252C16.0807 11.7311 16.0807 12.3892 15.6748 12.7951L9.79511 18.6748Z" fill="black"/>
</svg>
