<svg width="133" height="36" viewBox="0 0 133 36" fill="none" xmlns="http://www.w3.org/2000/svg">
<path d="M50.3 10.96H53.32V24.96H50.3V19.18H45.04V24.96H42V10.96H45.04V16.36H50.3V10.96Z" fill="black"/>
<path d="M66.855 19.52C66.855 19.8 66.835 20.0867 66.795 20.38H58.635C58.755 21.1133 59.0417 21.68 59.495 22.08C59.9617 22.4667 60.555 22.66 61.275 22.66C61.7683 22.66 62.215 22.5533 62.615 22.34C63.015 22.1133 63.3283 21.8067 63.555 21.42H66.635C66.235 22.5933 65.555 23.5267 64.595 24.22C63.635 24.9133 62.5283 25.26 61.275 25.26C59.675 25.26 58.3417 24.7133 57.275 23.62C56.2083 22.5267 55.675 21.1733 55.675 19.56C55.675 18.92 55.7617 18.3067 55.935 17.72C56.1217 17.1333 56.3817 16.6067 56.715 16.14C57.0617 15.6733 57.4617 15.2733 57.915 14.94C58.3683 14.5933 58.8817 14.3267 59.455 14.14C60.0283 13.9533 60.635 13.86 61.275 13.86C62.355 13.86 63.3217 14.1133 64.175 14.62C65.0417 15.1267 65.7017 15.8133 66.155 16.68C66.6217 17.5467 66.855 18.4933 66.855 19.52ZM61.275 16.34C60.6217 16.34 60.0683 16.52 59.615 16.88C59.175 17.24 58.875 17.74 58.715 18.38H63.935C63.8017 17.94 63.6083 17.5733 63.355 17.28C63.1017 16.9733 62.795 16.74 62.435 16.58C62.0883 16.42 61.7017 16.34 61.275 16.34Z" fill="black"/>
<path d="M77.9536 14.14H80.1336V24.94H77.8336L77.5936 23.98C76.6069 24.8333 75.4403 25.26 74.0936 25.26C72.4669 25.26 71.1136 24.72 70.0336 23.64C68.9669 22.5467 68.4336 21.18 68.4336 19.54C68.4336 17.9133 68.9669 16.56 70.0336 15.48C71.1136 14.4 72.4669 13.86 74.0936 13.86C75.4669 13.86 76.6469 14.3 77.6336 15.18L77.9536 14.14ZM72.2136 21.66C72.7736 22.22 73.4736 22.5 74.3136 22.5C75.1669 22.5 75.8736 22.22 76.4336 21.66C76.9936 21.1 77.2736 20.3933 77.2736 19.54C77.2736 18.6867 76.9936 17.98 76.4336 17.42C75.8736 16.86 75.1736 16.58 74.3336 16.58C73.7736 16.58 73.2669 16.7133 72.8136 16.98C72.3736 17.2333 72.0269 17.5867 71.7736 18.04C71.5203 18.48 71.3936 18.98 71.3936 19.54C71.3936 20.3933 71.6669 21.1 72.2136 21.66Z" fill="black"/>
<path d="M91.0822 10.26H94.0022V24.96H91.8422L91.5022 24.06C90.5422 24.8733 89.4155 25.28 88.1222 25.28C87.0422 25.28 86.0689 25.0333 85.2022 24.54C84.3355 24.0467 83.6555 23.3667 83.1622 22.5C82.6822 21.62 82.4422 20.64 82.4422 19.56C82.4422 18.48 82.6822 17.5067 83.1622 16.64C83.6555 15.7733 84.3355 15.0933 85.2022 14.6C86.0689 14.1067 87.0422 13.86 88.1222 13.86C89.2155 13.86 90.2022 14.1533 91.0822 14.74V10.26ZM86.2422 21.68C86.8022 22.24 87.5022 22.52 88.3422 22.52C89.1955 22.52 89.9022 22.24 90.4622 21.68C91.0222 21.1067 91.3022 20.4 91.3022 19.56C91.3022 18.7067 91.0222 18 90.4622 17.44C89.9022 16.88 89.1955 16.6 88.3422 16.6C87.5022 16.6 86.8022 16.88 86.2422 17.44C85.6822 18 85.4022 18.7067 85.4022 19.56C85.4022 20.4133 85.6822 21.12 86.2422 21.68Z" fill="black"/>
<path d="M96.9945 24.96V10.26H99.9145V24.96H96.9945Z" fill="black"/>
<path d="M102.917 12.72V10H105.837V12.72H102.917ZM102.917 24.96V14.16H105.837V24.96H102.917Z" fill="black"/>
<path d="M115 13.9C116.227 13.9 117.193 14.3133 117.9 15.14C118.62 15.9533 118.98 17.0467 118.98 18.42V24.96H116.06V18.88C116.06 17.2667 115.433 16.46 114.18 16.46C113.687 16.46 113.253 16.5733 112.88 16.8C112.52 17.0267 112.24 17.3533 112.04 17.78C111.853 18.2067 111.76 18.7067 111.76 19.28V24.96H108.84V14.16H110.84L111.42 15.5C111.62 15.2467 111.847 15.0267 112.1 14.84C112.367 14.64 112.653 14.4733 112.96 14.34C113.267 14.1933 113.587 14.0867 113.92 14.02C114.267 13.94 114.627 13.9 115 13.9Z" fill="black"/>
<path d="M132.332 19.52C132.332 19.8 132.312 20.0867 132.272 20.38H124.112C124.232 21.1133 124.519 21.68 124.972 22.08C125.439 22.4667 126.032 22.66 126.752 22.66C127.246 22.66 127.692 22.5533 128.092 22.34C128.492 22.1133 128.806 21.8067 129.032 21.42H132.112C131.712 22.5933 131.032 23.5267 130.072 24.22C129.112 24.9133 128.006 25.26 126.752 25.26C125.152 25.26 123.819 24.7133 122.752 23.62C121.686 22.5267 121.152 21.1733 121.152 19.56C121.152 18.92 121.239 18.3067 121.412 17.72C121.599 17.1333 121.859 16.6067 122.192 16.14C122.539 15.6733 122.939 15.2733 123.392 14.94C123.846 14.5933 124.359 14.3267 124.932 14.14C125.506 13.9533 126.112 13.86 126.752 13.86C127.832 13.86 128.799 14.1133 129.652 14.62C130.519 15.1267 131.179 15.8133 131.632 16.68C132.099 17.5467 132.332 18.4933 132.332 19.52ZM126.752 16.34C126.099 16.34 125.546 16.52 125.092 16.88C124.652 17.24 124.352 17.74 124.192 18.38H129.412C129.279 17.94 129.086 17.5733 128.832 17.28C128.579 16.9733 128.272 16.74 127.912 16.58C127.566 16.42 127.179 16.34 126.752 16.34Z" fill="black"/>
<path d="M11.7991 17.0264C11.5847 16.2262 12.0596 15.4037 12.8598 15.1893L17.2064 14.0246C18.0066 13.8102 18.8292 14.2851 19.0436 15.0853C19.258 15.8855 18.7831 16.708 17.9829 16.9224L13.6362 18.0871C12.836 18.3015 12.0135 17.8266 11.7991 17.0264Z" fill="black"/>
<path d="M17.6987 21.6572C17.4843 20.857 17.9592 20.0345 18.7594 19.8201L23.1061 18.6554C23.9063 18.441 24.7288 18.9159 24.9432 19.7161C25.1576 20.5163 24.6827 21.3388 23.8825 21.5532L19.5359 22.7179C18.7357 22.9323 17.9131 22.4574 17.6987 21.6572Z" fill="black"/>
<path d="M16.2498 22.0455C16.4642 22.8457 15.9894 23.6682 15.1892 23.8826C14.389 24.097 13.5665 23.6222 13.352 22.822C13.1376 22.0218 13.6125 21.1993 14.4127 20.9849C15.2129 20.7704 16.0354 21.2453 16.2498 22.0455Z" fill="black"/>
<path d="M23.3902 13.9206C23.6047 14.7208 23.1298 15.5433 22.3296 15.7577C21.5294 15.9721 20.7069 15.4972 20.4925 14.697C20.2781 13.8968 20.7529 13.0743 21.5531 12.8599C22.3533 12.6455 23.1758 13.1204 23.3902 13.9206Z" fill="black"/>
<path fill-rule="evenodd" clip-rule="evenodd" d="M16.326 4.94295C16.5404 5.74315 16.0655 6.56566 15.2653 6.78007C13.7432 7.18793 12.3162 7.89162 11.066 8.85094C9.8158 9.81027 8.76678 11.0064 7.97885 12.3712C7.19092 13.7359 6.67951 15.2425 6.47382 16.8049C6.26813 18.3672 6.37218 19.9548 6.78005 21.477C7.18791 22.9992 7.89159 24.4261 8.85091 25.6763C9.81024 26.9265 11.0064 27.9756 12.3712 28.7635C13.7359 29.5514 15.2425 30.0628 16.8048 30.2685C18.3672 30.4742 19.9548 30.3702 21.477 29.9623C22.2772 29.7479 23.0997 30.2228 23.3141 31.023C23.5285 31.8231 23.0536 32.6457 22.2534 32.8601C20.3507 33.3699 18.3662 33.5 16.4133 33.2429C14.4603 32.9857 12.5771 32.3465 10.8712 31.3616C9.16523 30.3766 7.67001 29.0654 6.47085 27.5026C5.2717 25.9398 4.3921 24.1562 3.88227 22.2535C3.37244 20.3508 3.24237 18.3663 3.49948 16.4133C3.7566 14.4603 4.39586 12.5771 5.38077 10.8712C6.36569 9.16526 7.67697 7.67004 9.23973 6.47088C10.8025 5.27173 12.5862 4.39212 14.4889 3.88229C15.2891 3.66788 16.1116 4.14276 16.326 4.94295Z" fill="black"/>
<path fill-rule="evenodd" clip-rule="evenodd" d="M29.9623 15.2654C29.5544 13.7432 28.8507 12.3163 27.8914 11.066C26.9321 9.81583 25.7359 8.76681 24.3712 7.97888C23.6537 7.56466 23.4079 6.64728 23.8221 5.92984C24.2363 5.2124 25.1537 4.96659 25.8712 5.3808C27.5771 6.36571 29.0723 7.67699 30.2715 9.23976C31.4706 10.8025 32.3502 12.5862 32.86 14.4889C33.3699 16.3916 33.4999 18.3761 33.2428 20.3291C32.9857 22.2821 32.3464 24.1653 31.3615 25.8712C30.9473 26.5886 30.0299 26.8344 29.3125 26.4202C28.5951 26.006 28.3492 25.0886 28.7635 24.3712C29.5514 23.0064 30.0628 21.4999 30.2685 19.9375C30.4742 18.3751 30.3701 16.7875 29.9623 15.2654Z" fill="black"/>
</svg>
