<svg width="24" height="24" viewBox="0 0 24 24" fill="none" xmlns="http://www.w3.org/2000/svg">
<path fill-rule="evenodd" clip-rule="evenodd" d="M15.0002 10V12H17.0002V10C17.0002 7.23858 14.7616 5 12.0002 5C9.23879 5 7.00021 7.23858 7.00021 10V12H9.00021V10C9.00021 8.34315 10.3434 7 12.0002 7C13.6571 7 15.0002 8.34315 15.0002 10Z" fill="black"/>
<path d="M11.0002 4C11.0002 3.44772 11.4479 3 12.0002 3C12.5525 3 13.0002 3.44772 13.0002 4V6C13.0002 6.55228 12.5525 7 12.0002 7C11.4479 7 11.0002 6.55228 11.0002 6V4Z" fill="black"/>
<path fill-rule="evenodd" clip-rule="evenodd" d="M12.0002 3C11.4479 3 11.0002 3.44772 11.0002 4V6C11.0002 6.55228 11.4479 7 12.0002 7C12.5525 7 13.0002 6.55228 13.0002 6V4C13.0002 3.44772 12.5525 3 12.0002 3Z" fill="black"/>
<path fill-rule="evenodd" clip-rule="evenodd" d="M8.00022 11C8.5525 11 9.00021 11.4477 9.00021 12C9.00021 12.017 9.00023 12.0343 9.00023 12.0517C9.00047 12.6899 9.0008 13.5863 8.69321 14.4578C8.3563 15.4124 7.67744 16.2794 6.44743 16.8944C5.95345 17.1414 5.35278 16.9412 5.10579 16.4472C4.8588 15.9532 5.05903 15.3526 5.55301 15.1056C6.323 14.7206 6.64414 14.2543 6.80723 13.7922C6.99124 13.2708 7.00021 12.6924 7.00021 12C7.00021 11.4477 7.44793 11 8.00022 11Z" fill="black"/>
<path fill-rule="evenodd" clip-rule="evenodd" d="M16.0002 11C15.4479 11 15.0002 11.4477 15.0002 12C15.0002 12.017 15.0002 12.0343 15.0002 12.0517C15 12.6899 14.9996 13.5863 15.3072 14.4578C15.6441 15.4124 16.323 16.2794 17.553 16.8944C18.047 17.1414 18.6476 16.9412 18.8946 16.4472C19.1416 15.9532 18.9414 15.3526 18.4474 15.1056C17.6774 14.7206 17.3563 14.2543 17.1932 13.7922C17.0092 13.2708 17.0002 12.6924 17.0002 12C17.0002 11.4477 16.5525 11 16.0002 11Z" fill="black"/>
<path fill-rule="evenodd" clip-rule="evenodd" d="M5.00021 16C5.00021 15.4477 5.44793 15 6.00021 15H18.0002C18.5525 15 19.0002 15.4477 19.0002 16C19.0002 16.5523 18.5525 17 18.0002 17H6.00021C5.44793 17 5.00021 16.5523 5.00021 16Z" fill="black"/>
<path d="M14.0002 18C14.0002 18.2626 13.9485 18.5227 13.848 18.7654C13.7475 19.008 13.6001 19.2285 13.4144 19.4142C13.2287 19.5999 13.0082 19.7472 12.7656 19.8478C12.5229 19.9483 12.2629 20 12.0002 20C11.7376 20 11.4775 19.9483 11.2348 19.8478C10.9922 19.7472 10.7717 19.5999 10.586 19.4142C10.4003 19.2285 10.253 19.008 10.1525 18.7654C10.0519 18.5227 10.0002 18.2626 10.0002 18H14.0002Z" fill="black"/>
</svg>
