<svg width="24" height="24" viewBox="0 0 24 24" fill="none" xmlns="http://www.w3.org/2000/svg">
<path fill-rule="evenodd" clip-rule="evenodd" d="M18 8C18 11.3137 15.3137 14 12 14C8.68629 14 6 11.3137 6 8C6 4.68629 8.68629 2 12 2C15.3137 2 18 4.68629 18 8ZM12 12C14.2091 12 16 10.2091 16 8C16 5.79086 14.2091 4 12 4C9.79086 4 8 5.79086 8 8C8 10.2091 9.79086 12 12 12Z" fill="black"/>
<path fill-rule="evenodd" clip-rule="evenodd" d="M20 22C20 18.2415 16.5323 15 12 15C7.46774 15 4 18.2415 4 22H2C2 16.922 6.59113 13 12 13C17.4089 13 22 16.922 22 22H20Z" fill="black"/>
</svg>
